# xmcd CD database file
#
# Track frame offsets:
#	150
#	15262
#	30099
#	45678
#	63040
#	78723
#	96590
#	110866
#	123049
#	139035
#	151535
#	165087
#	180014
#	194259
#	220795
#	237538
#
# Disc length: 3383 seconds
#
# Revision: 0
# Processed by: cddbd v1.5.1PL0 Copyright (c) Steve Scherf et al.
# Submitted via: CDex 1.51
#
DISCID=b90d3510
DTITLE=Edson e Hudson - Galera Coração
DYEAR=2005
DGENRE=Country
TTITLE0=Galera Coração
TTITLE1=É Amor Demais 
TTITLE2=Tá no Meu Coração 
TTITLE3=Por Trás da Chuva de Domingo 
TTITLE4=Solte a Garganta 
TTITLE5=Não Tem Dia, Não Tem Hora 
TTITLE6=Chocolate com Pimenta 
TTITLE7=Chega Junto 
TTITLE8=Amor e Ilusão 
TTITLE9=Quantas Lembranças 
TTITLE10=Abre a Janela 
TTITLE11=Por Amar Essa Mulher (Rosa o Clavel)
TTITLE12=Nossa História 
TTITLE13=O Caldeirão Vai Ferver 
TTITLE14=Deixa eu te amar (BONUS)
TTITLE15=Mil razões para chorar (BONUS)
EXTD=YEAR: 2005
EXTT0=
EXTT1=
EXTT2=
EXTT3=
EXTT4=
EXTT5=
EXTT6=
EXTT7=
EXTT8=
EXTT9=
EXTT10=
EXTT11=
EXTT12=
EXTT13=
EXTT14=
EXTT15=
PLAYORDER=
